<svg width="28" height="28" viewBox="0 0 28 28" fill="none" xmlns="http://www.w3.org/2000/svg">
<path d="M13.7734 1.30542C6.86969 1.30542 1.27344 6.90167 1.27344 13.8054C1.27344 20.7092 6.86969 26.3054 13.7734 26.3054C20.6772 26.3054 26.2734 20.7092 26.2734 13.8054C26.2734 6.90167 20.6772 1.30542 13.7734 1.30542Z" stroke="black" stroke-width="1.875" stroke-linecap="round" stroke-linejoin="round"/>
<path d="M4.11133 21.7379C4.11133 21.7379 6.89758 18.1804 13.7726 18.1804C20.6476 18.1804 23.4351 21.7379 23.4351 21.7379M13.7726 13.8054C14.7671 13.8054 15.721 13.4103 16.4242 12.7071C17.1275 12.0038 17.5226 11.05 17.5226 10.0554C17.5226 9.06086 17.1275 8.10703 16.4242 7.40377C15.721 6.70051 14.7671 6.30542 13.7726 6.30542C12.778 6.30542 11.8242 6.70051 11.1209 7.40377C10.4177 8.10703 10.0226 9.06086 10.0226 10.0554C10.0226 11.05 10.4177 12.0038 11.1209 12.7071C11.8242 13.4103 12.778 13.8054 13.7726 13.8054Z" stroke="black" stroke-width="1.875" stroke-linecap="round" stroke-linejoin="round"/>
</svg>
