<svg width="17" height="17" viewBox="0 0 17 17" fill="none" xmlns="http://www.w3.org/2000/svg">
<g clip-path="url(#clip0_2781_8755)">
<path d="M0.861902 3.55766H2.68572C3.04568 4.88209 4.41114 5.66395 5.73557 5.30398C6.58621 5.07279 7.2507 4.40829 7.4819 3.55766H15.5271C15.8952 3.55766 16.1937 3.25922 16.1937 2.89107C16.1937 2.52292 15.8952 2.22448 15.5271 2.22448H7.4819C7.12193 0.900014 5.75648 0.118155 4.43205 0.478119C3.58141 0.709314 2.91692 1.37381 2.68572 2.22444H0.861902C0.493752 2.22444 0.195312 2.52288 0.195312 2.89103C0.195312 3.25919 0.493752 3.55766 0.861902 3.55766Z" fill="#727A90"/>
<path d="M15.5271 7.72425H13.7033C13.344 6.4 11.9793 5.61771 10.6551 5.97692C9.80376 6.20787 9.1387 6.87289 8.90776 7.72425H0.861902C0.493752 7.72425 0.195312 8.02269 0.195312 8.39084C0.195312 8.75899 0.493752 9.05743 0.861902 9.05743H8.90776C9.267 10.3817 10.6317 11.164 11.956 10.8048C12.8073 10.5738 13.4723 9.90878 13.7033 9.05743H15.5271C15.8952 9.05743 16.1937 8.75899 16.1937 8.39084C16.1937 8.02269 15.8952 7.72425 15.5271 7.72425Z" fill="#727A90"/>
<path d="M15.5271 13.2234H7.4819C7.12193 11.899 5.75648 11.1171 4.43205 11.4771C3.58141 11.7083 2.91692 12.3728 2.68572 13.2234H0.861902C0.493752 13.2234 0.195312 13.5218 0.195312 13.89C0.195312 14.2581 0.493752 14.5566 0.861902 14.5566H2.68572C3.04568 15.881 4.41114 16.6629 5.73557 16.3029C6.58621 16.0717 7.2507 15.4072 7.4819 14.5566H15.5271C15.8952 14.5566 16.1937 14.2581 16.1937 13.89C16.1937 13.5218 15.8952 13.2234 15.5271 13.2234Z" fill="#727A90"/>
</g>
<defs>
<clipPath id="clip0_2781_8755">
<rect width="16" height="16" fill="white" transform="translate(0.195312 0.390503)"/>
</clipPath>
</defs>
</svg>
