<svg width="26" height="25" viewBox="0 0 26 25" fill="none" xmlns="http://www.w3.org/2000/svg">
<path d="M19.6547 20.9564H11.3214V15.623H9.93251V20.9564H5.76584V15.623H4.37695V20.9564C4.37695 21.31 4.52328 21.6491 4.78375 21.8992C5.04422 22.1492 5.39749 22.2897 5.76584 22.2897H19.6547C20.0231 22.2897 20.3764 22.1492 20.6368 21.8992C20.8973 21.6491 21.0436 21.31 21.0436 20.9564V15.623H19.6547V20.9564Z" fill="#333333"/>
<path d="M23.676 9.80305L20.8427 4.36305C20.7277 4.14091 20.5504 3.95396 20.3308 3.82323C20.1112 3.69251 19.858 3.62318 19.5996 3.62305H5.82184C5.56345 3.62318 5.31022 3.69251 5.09062 3.82323C4.87103 3.95396 4.69377 4.14091 4.57879 4.36305L1.74545 9.80305C1.64871 9.98937 1.59877 10.1949 1.59962 10.403V12.4564C1.59899 12.7679 1.71201 13.0698 1.91906 13.3097C2.22508 13.6465 2.60302 13.916 3.02721 14.1001C3.4514 14.2841 3.9119 14.3784 4.3774 14.3764C5.13696 14.3775 5.87336 14.1254 6.46073 13.663C7.0481 14.1256 7.78434 14.3784 8.54406 14.3784C9.30379 14.3784 10.04 14.1256 10.6274 13.663C11.2148 14.1256 11.951 14.3784 12.7107 14.3784C13.4705 14.3784 14.2067 14.1256 14.7941 13.663C15.3814 14.1256 16.1177 14.3784 16.8774 14.3784C17.6371 14.3784 18.3734 14.1256 18.9607 13.663C19.6164 14.1799 20.4552 14.4325 21.3009 14.3679C22.1466 14.3032 22.9333 13.9263 23.4955 13.3164C23.705 13.0774 23.8205 12.7754 23.8218 12.463V10.403C23.8227 10.1949 23.7727 9.98937 23.676 9.80305ZM21.0441 13.043C20.7474 13.0424 20.4553 12.9737 20.192 12.8426C19.9286 12.7116 19.7017 12.522 19.5302 12.2897L18.9607 11.543L18.3982 12.2897C18.2234 12.5184 17.995 12.7044 17.7313 12.8326C17.4677 12.9609 17.1764 13.0277 16.8809 13.0277C16.5854 13.0277 16.294 12.9609 16.0304 12.8326C15.7668 12.7044 15.5383 12.5184 15.3635 12.2897L14.7941 11.543L14.2316 12.2897C14.0568 12.5184 13.8283 12.7044 13.5647 12.8326C13.3011 12.9609 13.0097 13.0277 12.7142 13.0277C12.4187 13.0277 12.1273 12.9609 11.8637 12.8326C11.6001 12.7044 11.3716 12.5184 11.1968 12.2897L10.6274 11.543L10.0649 12.2897C9.89009 12.5184 9.66163 12.7044 9.39802 12.8326C9.1344 12.9609 8.84305 13.0277 8.54754 13.0277C8.25203 13.0277 7.96067 12.9609 7.69705 12.8326C7.43344 12.7044 7.20498 12.5184 7.03018 12.2897L6.46073 11.543L5.89129 12.2897C5.71974 12.522 5.49284 12.7116 5.2295 12.8426C4.96616 12.9737 4.67401 13.0424 4.3774 13.043C4.11569 13.0461 3.85633 12.9953 3.61676 12.8941C3.3772 12.7929 3.16298 12.6437 2.98851 12.4564V10.403L5.82184 4.95638H19.5996L22.433 10.3964V12.4364C22.2595 12.6263 22.046 12.7786 21.8065 12.8832C21.5671 12.9878 21.3072 13.0423 21.0441 13.043Z" fill="#333333"/>
</svg>
