<svg width="16" height="16" viewBox="0 0 16 16" fill="none" xmlns="http://www.w3.org/2000/svg">
<path d="M12.1667 12.9993H7.16667V9.66602H6.33333V12.9993H3.83333V9.66602H3V12.9993C3 13.2204 3.0878 13.4323 3.24408 13.5886C3.40036 13.7449 3.61232 13.8327 3.83333 13.8327H12.1667C12.3877 13.8327 12.5996 13.7449 12.7559 13.5886C12.9122 13.4323 13 13.2204 13 12.9993V9.66602H12.1667V12.9993Z" fill="black"/>
<path d="M14.5798 6.02852L12.8798 2.62852C12.8108 2.48968 12.7045 2.37284 12.5727 2.29113C12.441 2.20943 12.289 2.1661 12.134 2.16602H3.86732C3.71229 2.1661 3.56035 2.20943 3.42859 2.29113C3.29683 2.37284 3.19048 2.48968 3.12149 2.62852L1.42149 6.02852C1.36345 6.14497 1.33348 6.2734 1.33399 6.40351V7.68685C1.33361 7.88156 1.40142 8.07025 1.52566 8.22018C1.70927 8.43065 1.93603 8.59913 2.19055 8.71417C2.44506 8.8292 2.72136 8.8881 3.00066 8.88685C3.45639 8.88756 3.89823 8.72997 4.25066 8.44101C4.60308 8.73013 5.04482 8.88814 5.50066 8.88814C5.95649 8.88814 6.39824 8.73013 6.75066 8.44101C7.10308 8.73013 7.54482 8.88814 8.00066 8.88814C8.45649 8.88814 8.89824 8.73013 9.25066 8.44101C9.60308 8.73013 10.0448 8.88814 10.5007 8.88814C10.9565 8.88814 11.3982 8.73013 11.7507 8.44101C12.1441 8.76403 12.6474 8.92193 13.1548 8.88152C13.6622 8.84111 14.1342 8.60555 14.4715 8.22435C14.5972 8.075 14.6665 7.88624 14.6673 7.69101V6.40351C14.6678 6.2734 14.6379 6.14497 14.5798 6.02852ZM13.0007 8.05351C12.8227 8.0531 12.6474 8.01015 12.4894 7.92825C12.3314 7.84635 12.1953 7.72787 12.0923 7.58268L11.7507 7.11601L11.4132 7.58268C11.3083 7.72564 11.1712 7.84189 11.013 7.92202C10.8549 8.00214 10.68 8.0439 10.5027 8.0439C10.3254 8.0439 10.1506 8.00214 9.99245 7.92202C9.83428 7.84189 9.69721 7.72564 9.59232 7.58268L9.25066 7.11601L8.91316 7.58268C8.80827 7.72564 8.6712 7.84189 8.51303 7.92202C8.35486 8.00214 8.18005 8.0439 8.00274 8.0439C7.82543 8.0439 7.65062 8.00214 7.49245 7.92202C7.33428 7.84189 7.19721 7.72564 7.09232 7.58268L6.75066 7.11601L6.41316 7.58268C6.30827 7.72564 6.1712 7.84189 6.01303 7.92202C5.85486 8.00214 5.68005 8.0439 5.50274 8.0439C5.32543 8.0439 5.15062 8.00214 4.99245 7.92202C4.83428 7.84189 4.69721 7.72564 4.59232 7.58268L4.25066 7.11601L3.90899 7.58268C3.80606 7.72787 3.66992 7.84635 3.51192 7.92825C3.35392 8.01015 3.17863 8.0531 3.00066 8.05351C2.84363 8.05542 2.68802 8.02369 2.54428 7.96044C2.40054 7.8972 2.272 7.80391 2.16732 7.68685V6.40351L3.86732 2.99935H12.134L13.834 6.39935V7.67435C13.7299 7.79305 13.6018 7.88825 13.4581 7.95363C13.3145 8.019 13.1585 8.05305 13.0007 8.05351Z" fill="black"/>
</svg>
