<svg width="29" height="26" viewBox="0 0 29 26" fill="none" xmlns="http://www.w3.org/2000/svg">
<path d="M12.0003 1.2086C12.7516 0.717251 13.6171 0.457031 14.5 0.457031C15.3829 0.457031 16.2484 0.717251 16.9998 1.2086L28.1009 8.46701C28.2213 8.54566 28.3209 8.65524 28.3907 8.7856C28.4605 8.91595 28.498 9.06286 28.4999 9.21271C28.5018 9.36255 28.468 9.51047 28.4016 9.64277C28.3351 9.77506 28.2383 9.88744 28.1199 9.96949L23.4597 13.1976V21.0921C23.4597 21.4434 23.2783 21.6617 23.0644 21.8813C22.9166 22.0344 22.7638 22.1821 22.6063 22.324C22.0671 22.8115 21.4901 23.2502 20.8816 23.6354C19.3898 24.5848 17.2115 25.5426 14.5 25.5426C11.7897 25.5426 9.61026 24.5848 8.11847 23.6354C7.50991 23.2502 6.93297 22.8115 6.39372 22.324C6.23641 22.1814 6.08327 22.0338 5.93454 21.8813C5.72286 21.6617 5.54031 21.4481 5.54031 21.0921V13.1976L2.18042 10.8703V18.1251C2.18042 18.3612 2.09192 18.5876 1.93439 18.7545C1.77687 18.9214 1.56322 19.0152 1.34044 19.0152C1.11767 19.0152 0.904016 18.9214 0.746491 18.7545C0.588965 18.5876 0.500468 18.3612 0.500468 18.1251V9.52088C0.500468 9.46945 0.504201 9.42 0.511668 9.37253C0.483905 9.19787 0.50595 9.0184 0.574982 8.85709C0.644013 8.69578 0.756892 8.55996 0.899176 8.46701L12.0003 1.2086ZM7.22026 14.3618V20.7206C7.29268 20.7918 7.38153 20.8757 7.48681 20.9722C7.82504 21.2808 8.32902 21.6938 8.98196 22.1092C10.2901 22.9399 12.1716 23.7624 14.5 23.7624C16.8296 23.7624 18.7111 22.9399 20.0181 22.1092C20.6468 21.7086 21.2369 21.2435 21.7798 20.7206V14.3618L17.1051 17.6017C16.3306 18.1384 15.4254 18.4242 14.5 18.4242C13.5747 18.4242 12.6694 18.1384 11.895 17.6017L7.22026 14.3618ZM16.1173 2.72294C15.6312 2.40512 15.0712 2.23681 14.5 2.23681C13.9288 2.23681 13.3689 2.40512 12.8828 2.72294L2.90615 9.24555L12.8145 16.1111C13.3156 16.4583 13.9013 16.6433 14.5 16.6433C15.0987 16.6433 15.6845 16.4583 16.1856 16.1111L26.0939 9.24555L16.1173 2.72294Z" fill="#545454"/>
</svg>
