<svg width="24" height="25" viewBox="0 0 24 25" fill="none" xmlns="http://www.w3.org/2000/svg">
<path d="M23.414 21.2678L18.337 16.1908C19.386 14.6098 20 12.7168 20 10.6818C20 5.16776 15.514 0.681763 10 0.681763C4.486 0.681763 0 5.16776 0 10.6818C0 16.1958 4.486 20.6818 10 20.6818C12.035 20.6818 13.928 20.0678 15.509 19.0188L20.586 24.0958C21.366 24.8768 22.634 24.8768 23.414 24.0958C24.195 23.3148 24.195 22.0488 23.414 21.2678ZM3 10.6818C3 6.82176 6.14 3.68176 10 3.68176C13.86 3.68176 17 6.82176 17 10.6818C17 14.5418 13.86 17.6818 10 17.6818C6.14 17.6818 3 14.5418 3 10.6818Z" fill="#8A8A8A"/>
</svg>
