<svg width="26" height="25" viewBox="0 0 26 25" fill="none" xmlns="http://www.w3.org/2000/svg">
<path d="M12.7109 24.457C9.09115 23.757 6.1026 22.1618 3.74531 19.6714C1.38802 17.181 0.209897 14.4162 0.210938 11.377V4.05703L12.7109 0.457031L25.2109 4.05703V11.377C25.2109 14.417 24.0328 17.1822 21.6766 19.6726C19.3203 22.163 16.3318 23.7578 12.7109 24.457ZM12.7109 21.937C15.237 21.337 17.3464 20.1518 19.0391 18.3814C20.7318 16.611 21.7214 14.6362 22.0078 12.457H12.7109V3.00703L3.33594 5.70703V11.917C3.33594 12.057 3.36198 12.237 3.41406 12.457H12.7109V21.937Z" fill="#333333"/>
</svg>
