<svg width="29" height="26" viewBox="0 0 29 26" fill="none" xmlns="http://www.w3.org/2000/svg">
<path d="M14.5 16.1357C16.433 16.1357 18 14.7318 18 13C18 11.2682 16.433 9.86432 14.5 9.86432C12.567 9.86432 11 11.2682 11 13C11 14.7318 12.567 16.1357 14.5 16.1357Z" stroke="white" stroke-width="1.875"/>
<path d="M16.5587 2.70657C16.1305 2.5477 15.5869 2.5477 14.4995 2.5477C13.4122 2.5477 12.8685 2.5477 12.4404 2.70657C12.1571 2.81163 11.8997 2.96568 11.6829 3.15991C11.4661 3.35415 11.2941 3.58476 11.1769 3.83856C11.0696 4.07164 11.0264 4.34445 11.01 4.74059C11.0028 5.02697 10.9144 5.307 10.7532 5.55438C10.5919 5.80175 10.3632 6.00836 10.0884 6.15479C9.80943 6.29489 9.4953 6.36917 9.17551 6.37063C8.85571 6.37209 8.54075 6.3007 8.26022 6.16315C7.86822 5.9771 7.58472 5.87467 7.30355 5.84122C6.69025 5.76896 6.07003 5.91784 5.57922 6.25513C5.21288 6.50912 4.93988 6.93035 4.39622 7.77385C3.85255 8.61735 3.57955 9.03858 3.52005 9.45144C3.47996 9.72368 3.50012 10.0003 3.57939 10.2656C3.65866 10.5308 3.79549 10.7795 3.98205 10.9973C4.15472 11.198 4.39622 11.3663 4.77072 11.5774C5.32255 11.8879 5.67722 12.4168 5.67722 13C5.67722 13.5832 5.32255 14.1121 4.77072 14.4215C4.39622 14.6337 4.15355 14.802 3.98205 15.0027C3.79549 15.2205 3.65866 15.4692 3.57939 15.7344C3.50012 15.9997 3.47996 16.2763 3.52005 16.5486C3.58072 16.9604 3.85255 17.3826 4.39505 18.2261C4.93988 19.0697 5.21172 19.4909 5.57922 19.7449C5.82239 19.912 6.09994 20.0346 6.39601 20.1056C6.69207 20.1766 7.00085 20.1947 7.30472 20.1588C7.58472 20.1253 7.86822 20.0229 8.26022 19.8368C8.54075 19.6993 8.85571 19.6279 9.17551 19.6294C9.4953 19.6308 9.80943 19.7051 10.0884 19.8452C10.6519 20.1379 10.9867 20.6762 11.01 21.2594C11.0264 21.6566 11.0684 21.9284 11.1769 22.1614C11.2941 22.4152 11.4661 22.6459 11.6829 22.8401C11.8997 23.0343 12.1571 23.1884 12.4404 23.2934C12.8685 23.4523 13.4122 23.4523 14.4995 23.4523C15.5869 23.4523 16.1305 23.4523 16.5587 23.2934C16.842 23.1884 17.0994 23.0343 17.3162 22.8401C17.533 22.6459 17.705 22.4152 17.8222 22.1614C17.9295 21.9284 17.9727 21.6566 17.989 21.2594C18.0124 20.6762 18.3472 20.1368 18.9107 19.8452C19.1897 19.7051 19.5038 19.6308 19.8236 19.6294C20.1434 19.6279 20.4583 19.6993 20.7389 19.8368C21.1309 20.0229 21.4144 20.1253 21.6944 20.1588C21.9982 20.1947 22.307 20.1766 22.6031 20.1056C22.8992 20.0346 23.1767 19.912 23.4199 19.7449C23.7874 19.4919 24.0592 19.0697 24.6029 18.2261C25.1465 17.3826 25.4195 16.9614 25.479 16.5486C25.5191 16.2763 25.499 15.9997 25.4197 15.7344C25.3404 15.4692 25.2036 15.2205 25.017 15.0027C24.8444 14.802 24.6029 14.6337 24.2284 14.4226C23.9551 14.2737 23.7285 14.0651 23.5699 13.8162C23.4113 13.5674 23.326 13.2865 23.3219 13C23.3219 12.4168 23.6766 11.8879 24.2284 11.5785C24.6029 11.3663 24.8455 11.198 25.017 10.9973C25.2036 10.7795 25.3404 10.5308 25.4197 10.2656C25.499 10.0003 25.5191 9.72368 25.479 9.45144C25.4184 9.03962 25.1465 8.61735 24.604 7.77385C24.0592 6.93035 23.7874 6.50912 23.4199 6.25513C23.1767 6.08799 22.8992 5.96541 22.6031 5.89439C22.307 5.82337 21.9982 5.8053 21.6944 5.84122C21.4144 5.87467 21.1309 5.9771 20.7377 6.16315C20.4573 6.30051 20.1426 6.3718 19.823 6.37034C19.5034 6.36888 19.1895 6.29471 18.9107 6.15479C18.6359 6.00836 18.4072 5.80175 18.2459 5.55438C18.0847 5.307 17.9963 5.02697 17.989 4.74059C17.9727 4.3434 17.9307 4.07164 17.8222 3.83856C17.705 3.58476 17.533 3.35415 17.3162 3.15991C17.0994 2.96568 16.842 2.81163 16.5587 2.70657Z" stroke="white" stroke-width="1.875"/>
</svg>
