<svg width="29" height="26" viewBox="0 0 29 26" fill="none" xmlns="http://www.w3.org/2000/svg">
<path d="M6.33801 6.72757H25.0047V8.81803H6.33801V6.72757ZM8.67134 2.5477H22.6713V4.63816H8.67134V2.5477ZM24.9965 10.9001H6.33684C6.0292 10.9008 5.72472 10.9558 5.44078 11.0619C5.15685 11.168 4.89903 11.3232 4.68203 11.5186C4.46504 11.7139 4.29312 11.9457 4.1761 12.2006C4.05908 12.4555 3.99924 12.7286 4.00001 13.0042V21.3388C3.99924 21.6145 4.05908 21.8875 4.1761 22.1424C4.29312 22.3973 4.46504 22.6291 4.68203 22.8245C4.89903 23.0198 5.15685 23.175 5.44078 23.2811C5.72472 23.3872 6.0292 23.4422 6.33684 23.4429H24.9965C25.3041 23.4422 25.6086 23.3872 25.8926 23.2811C26.1765 23.175 26.4343 23.0198 26.6513 22.8245C26.8683 22.6291 27.0402 22.3973 27.1572 22.1424C27.2743 21.8875 27.3341 21.6145 27.3333 21.3388V13.0042C27.3341 12.7286 27.2743 12.4555 27.1572 12.2006C27.0402 11.9457 26.8683 11.7139 26.6513 11.5186C26.4343 11.3232 26.1765 11.168 25.8926 11.0619C25.6086 10.9558 25.3041 10.9008 24.9965 10.9001ZM25 21.3618H6.33334V13H25V21.3618Z" fill="#333333"/>
<path d="M14.5052 20.3072H16.8385V18.2282H19.1719V16.1336H16.8385V14.0358H14.5052V16.1367H12.1719V18.2282H14.5052V20.3072Z" fill="#333333"/>
</svg>
